<?xml version="1.0" encoding="UTF-8"?>
<!-- Generated by Pixelmator Pro 4.0 -->
<svg width="2582" height="769" viewBox="0 0 2582 769" xmlns="http://www.w3.org/2000/svg">
    <clipPath id="clipPath1">
        <path clip-rule="evenodd" d="M 833.333923 383.265686 C 833.333923 161.463013 653.527344 -18.343567 431.724701 -18.343567 C 209.922058 -18.343567 30.115482 161.463013 30.115482 383.265686 C 30.115482 605.068359 209.922058 784.874878 431.724701 784.874878 C 653.527344 784.874878 833.333923 605.068359 833.333923 383.265686 Z"/>
    </clipPath>
    <g id="waves" clip-path="url(#clipPath1)">
        <path id="Trac-copie-2" fill="none" stroke="#929292" stroke-width="201.650497" stroke-linecap="round" stroke-linejoin="round" d="M -466.893097 226.82489 C -414.244781 305.391174 -361.596466 383.957428 -244.589432 385.999786 C -19.575926 389.927399 -14.156224 79.432922 210.857285 83.360535 C 444.871368 87.445313 421.450531 397.625549 655.4646 401.710266 C 880.478149 405.637909 885.897827 95.143433 1110.911377 99.071045 C 1227.918335 101.113403 1280.56665 179.679688 1333.214966 258.245911"/>
        <path id="Trac-copie" fill="none" stroke="#646464" stroke-width="201.650497" stroke-linecap="round" stroke-linejoin="round" d="M -469.098511 353.173309 C -416.450195 431.739563 -363.80188 510.305817 -246.794861 512.348145 C -21.781345 516.275818 -16.361643 205.781311 208.651871 209.708984 C 442.665955 213.793701 419.245117 523.973938 653.259216 528.058716 C 878.272705 531.986328 883.692383 221.491821 1108.705933 225.419434 C 1225.712891 227.461853 1278.361206 306.028076 1331.009521 384.59433"/>
        <path id="Trac" fill="none" stroke="#000000" stroke-width="201.650497" stroke-linecap="round" stroke-linejoin="round" d="M -471.820099 509.092621 C -419.171783 587.658875 -366.523468 666.225098 -249.516434 668.267456 C -24.502926 672.195068 -19.083225 361.700623 205.930283 365.628265 C 439.944366 369.712982 416.523529 679.89325 650.537598 683.977966 C 875.551147 687.905579 880.970825 377.411133 1105.984375 381.338776 C 1222.991333 383.381134 1275.639648 461.947388 1328.287964 540.513611"/>
    </g>
    <text id="Te-Moana-Mahana" xml:space="preserve"><tspan x="923" y="364" font-family="Philosopher" font-size="357" font-style="italic" font-weight="700" fill="#000000" xml:space="preserve">Te Moana</tspan><tspan x="923" y="648" font-family="Philosopher" font-size="357" font-style="italic" font-weight="700" fill="#000000" xml:space="preserve">Mahana</tspan></text>
</svg>
