<?xml version="1.0" encoding="UTF-8"?>
<!-- Generated by Pixelmator Pro 4.0 -->
<svg width="2435" height="804" viewBox="0 0 2435 804" xmlns="http://www.w3.org/2000/svg">
    <clipPath id="clipPath1">
        <path clip-rule="evenodd" d="M 803.333923 402.265686 C 803.333923 180.463013 623.527344 0.656433 401.724701 0.656433 C 179.922058 0.656433 0.115481 180.463013 0.115481 402.265686 C 0.115481 624.068359 179.922058 803.874878 401.724701 803.874878 C 623.527344 803.874878 803.333923 624.068359 803.333923 402.265686 Z"/>
    </clipPath>
    <g id="waves" clip-path="url(#clipPath1)">
        <path id="Rectangle" fill="none" stroke="none" d="M -149 897 L 1155 897 L 1155 -108 L -149 -108 Z"/>
        <path id="Trac-copie-2" fill="none" stroke="#6d9eeb" stroke-width="201.650497" stroke-linecap="round" stroke-linejoin="round" d="M -496.893097 245.82489 C -444.244781 324.391174 -391.596466 402.957428 -274.589447 404.999786 C -49.575924 408.927399 -44.156223 98.432922 180.857285 102.360535 C 414.871368 106.445313 391.450531 416.625549 625.4646 420.710266 C 850.478149 424.637909 855.897827 114.143433 1080.911377 118.071045 C 1197.918335 120.113403 1250.56665 198.679688 1303.214966 277.245911"/>
        <path id="Trac-copie" fill="none" stroke="#3c78d8" stroke-width="201.650497" stroke-linecap="round" stroke-linejoin="round" d="M -499.098511 372.173309 C -446.450195 450.739563 -393.80188 529.305786 -276.794861 531.348145 C -51.781345 535.275757 -46.361645 224.781311 178.651871 228.708984 C 412.665955 232.793701 389.245117 542.973938 623.259216 547.058716 C 848.272705 550.986328 853.692383 240.491821 1078.705933 244.419434 C 1195.712891 246.461853 1248.361206 325.028076 1301.009521 403.59433"/>
        <path id="Trac" fill="none" stroke="#0b5394" stroke-width="201.650497" stroke-linecap="round" stroke-linejoin="round" d="M -501.820099 528.092651 C -449.171783 606.658875 -396.523468 685.225098 -279.516449 687.267456 C -54.502926 691.195068 -49.083225 380.700623 175.930283 384.628265 C 409.944366 388.712982 386.523529 698.89325 620.537598 702.977966 C 845.551147 706.905579 850.970825 396.411133 1075.984375 400.338776 C 1192.991333 402.381134 1245.639648 480.947388 1298.287964 559.513611"/>
    </g>
    <text id="Te-Moana-Mahana" xml:space="preserve"><tspan x="893" y="383" font-family="Philosopher" font-size="357" font-style="italic" font-weight="700" fill="#000000" xml:space="preserve">Te Moana</tspan><tspan x="893" y="667" font-family="Philosopher" font-size="357" font-style="italic" font-weight="700" fill="#000000" xml:space="preserve">Mahana</tspan></text>
</svg>
